# xmcd
#
# Track frame offsets: 
#        150
#        12285
#        25186
#        40244
#        53005
#        66051
#        80405
#        94534
#        107802
#        121561
#        134468
#        146215
#        161811
#        175602
#        191480
#        206790
#        220503
#        233068
#        248219
#        261263
#        276780
#        290818
#        302519
#        316545
#
# Disc length: 4377 seconds
#
# Revision: 1
# Processed by: cddbd v1.5.2PL0 Copyright (c) Steve Scherf et al.
# Submitted via: ExactAudioCopy v0.99pb5
#
DISCID=4d111718
DTITLE=Various Artist - Rare 1930's Blues (1934-1937)
DYEAR=1995
DGENRE=Blues
TTITLE0=Lousiana Johnny and Kid Beecher - Charity Blues
TTITLE1=Lousiana Johnny and Kid Beecher - Show Me What You Got For Sale
TTITLE2=Lousiana Johnny and Kid Beecher - True Man Blues
TTITLE3=Lousiana Johnny and Kid Beecher - Hard Working Man
TTITLE4=Lousiana Johnny and Kid Beecher - When My Baby Leaves Home
TTITLE5=Lousiana Johnny and Kid Beecher - Cherry Hill Blues
TTITLE6=Lousiana Johnny and Kid Beecher - Razor Cuttin' Man
TTITLE7=Lousiana Johnny and Kid Beecher - Whiskey Head Woman
TTITLE8=Lousiana Johnny and Kid Beecher - Three-Six-Nine Blues
TTITLE9=Lousiana Johnny and Kid Beecher - Policy Blues
TTITLE10=Arkansas Shorty - Mr. So And So Blues
TTITLE11=Arkansas Shorty - Blue As I Can Be
TTITLE12=Arkansas Shorty - Whippin' That Jelly
TTITLE13=Arkansas Shorty - Double Crossing Buddy
TTITLE14=Arkansas Shorty - From One To Twelve
TTITLE15=Arkansas Shorty - Greyhound Bus
TTITLE16=John D. Twitty - A Gang Of Trouble (Take 1)
TTITLE17=John D. Twitty - A Gang Of Trouble (Take 2)
TTITLE18=John D. Twitty - Walking Blues
TTITLE19=John D. Twitty - John D. Blues
TTITLE20=John D. Twitty - Sold It To The Devil
TTITLE21=John D. Twitty - You Can't Love Me And Someone Else Too
TTITLE22=John D. Twitty - Camp Meeting In The Air
TTITLE23=John D. Twitty - Death Of The Gambler
EXTD=
EXTT0=
EXTT1=
EXTT2=
EXTT3=
EXTT4=
EXTT5=
EXTT6=
EXTT7=
EXTT8=
EXTT9=
EXTT10=
EXTT11=
EXTT12=
EXTT13=
EXTT14=
EXTT15=
EXTT16=
EXTT17=
EXTT18=
EXTT19=
EXTT20=
EXTT21=
EXTT22=
EXTT23=
PLAYORDER=
